<svg width="70" height="69" viewBox="0 0 70 69" fill="none" xmlns="http://www.w3.org/2000/svg">
<g id="united-kingdom 1">
<g id="_x30_1_United_Kingdom_x2C__country_x2C__national_x2C__flag_x2C__world_flag">
<g id="XMLID_1_">
<path id="XMLID_1007_" d="M35.3922 71.6351C55.8848 71.6351 72.4974 55.0226 72.4974 34.53C72.4974 14.0374 55.8848 -2.57513 35.3922 -2.57513C14.8996 -2.57513 -1.71289 14.0374 -1.71289 34.53C-1.71289 55.0226 14.8996 71.6351 35.3922 71.6351Z" fill="#0053B5"/>
<path id="XMLID_1006_" d="M35.3921 67.7697C53.7501 67.7697 68.6321 52.8876 68.6321 34.5297C68.6321 16.1717 53.7501 1.28967 35.3921 1.28967C17.0342 1.28967 2.1521 16.1717 2.1521 34.5297C2.1521 52.8876 17.0342 67.7697 35.3921 67.7697Z" fill="white"/>
</g>
<g id="XMLID_712_">
<g id="Group">
<path id="XMLID_1005_" d="M8.77287 22.0972C8.3712 22.9557 8.01005 23.8366 7.69141 24.7378H12.5454L8.77287 22.0972Z" fill="#0053B5"/>
<path id="XMLID_1004_" d="M25.6006 6.82886C21.3202 8.34197 17.4958 10.8184 14.387 13.9985L25.6006 21.4742V6.82886Z" fill="#0053B5"/>
<path id="XMLID_1003_" d="M56.3975 13.9985C53.2887 10.8183 49.4642 8.34182 45.1838 6.82886V21.4744L56.3975 13.9985Z" fill="#0053B5"/>
<path id="XMLID_1002_" d="M62.0115 46.9621C62.4132 46.1035 62.7743 45.2226 63.093 44.3214H58.239L62.0115 46.9621Z" fill="#0053B5"/>
<path id="XMLID_1001_" d="M63.093 24.7378C62.7743 23.8365 62.4132 22.9555 62.0115 22.0972L58.239 24.7378H63.093Z" fill="#0053B5"/>
<path id="XMLID_1000_" d="M14.387 55.0611C17.4958 58.2412 21.3202 60.7178 25.6006 62.2308V47.5852L14.387 55.0611Z" fill="#0053B5"/>
<path id="XMLID_999_" d="M7.69141 44.3214C8.01005 45.2228 8.3712 46.1037 8.77287 46.9621L12.5454 44.3214H7.69141Z" fill="#0053B5"/>
<path id="XMLID_998_" d="M45.1838 62.231C49.4642 60.7178 53.2887 58.2414 56.3975 55.0613L45.1838 47.5856V62.231Z" fill="#0053B5"/>
</g>
<g id="XMLID_721_">
<path id="XMLID_997_" d="M25.6009 21.4746L14.3872 13.9988C13.7483 14.6525 13.1394 15.3357 12.5632 16.0466L25.601 24.7384H17.4413L10.0708 19.6359C9.60083 20.4332 9.16763 21.2544 8.77307 22.0978L12.5456 24.7384H7.69162C7.31639 25.8 6.9996 26.8888 6.74683 28.0023H25.6009V41.0577H6.74683C6.99945 42.1712 7.31639 43.2601 7.69162 44.3216H12.5456L8.77307 46.9622C9.16763 47.8055 9.60083 48.6269 10.0708 49.4242L17.4413 44.3216H25.601L12.5632 53.0135C13.1394 53.7243 13.7483 54.4075 14.3872 55.0612L25.6009 47.5855V62.231C26.6624 62.6062 27.7513 62.923 28.8647 63.1758C28.8647 61.1901 28.8647 7.8989 28.8647 5.8844C27.7513 6.13702 26.6624 6.45396 25.6009 6.82919V21.4746Z" fill="white"/>
<path id="XMLID_996_" d="M45.1838 28.0022H64.0378C63.7852 26.8888 63.4683 25.7999 63.093 24.7384H58.2391L62.0116 22.0977C61.617 21.2545 61.1838 20.4331 60.7138 19.6358L53.3434 24.7384H45.1836L58.2214 16.0465C57.6452 15.3356 57.0364 14.6524 56.3974 13.9987L45.1838 21.4745V6.82894C44.1223 6.45372 43.0334 6.13693 41.9199 5.88416V63.1756C43.0334 62.9229 44.1223 62.606 45.1838 62.2308V47.5852L56.3974 55.061C57.0364 54.4073 57.6452 53.7241 58.2214 53.0132L45.1836 44.3214H53.3434L60.7138 49.4239C61.1838 48.6266 61.6172 47.8054 62.0116 46.962L58.2391 44.3214H63.093C63.4683 43.2598 63.785 42.171 64.0378 41.0575H45.1838V28.0022Z" fill="white"/>
</g>
<g id="XMLID_713_">
<path id="XMLID_995_" d="M6.74655 41.0576H25.6006V28.0022H6.74655C5.80347 32.1583 5.74549 36.6463 6.74655 41.0576Z" fill="#D80027"/>
<path id="XMLID_994_" d="M64.0381 28.0022H45.1841V41.0576H64.0381C64.9812 36.9016 65.039 32.4135 64.0381 28.0022Z" fill="#D80027"/>
<path id="XMLID_993_" d="M28.8647 5.884V63.1754C33.0208 64.1185 37.5089 64.1765 41.9202 63.1754C41.9202 59.4593 41.9202 8.42772 41.9202 5.884C37.7643 4.94092 33.2761 4.88294 28.8647 5.884Z" fill="#D80027"/>
<path id="XMLID_992_" d="M60.714 19.6359C59.9715 18.3762 59.1378 17.1767 58.2217 16.0466L45.1838 24.7384H53.3436L60.714 19.6359Z" fill="#D80027"/>
<path id="XMLID_991_" d="M10.0706 19.6359L17.441 24.7384H25.6008L12.5629 16.0466C11.6468 17.1767 10.8131 18.3762 10.0706 19.6359Z" fill="#D80027"/>
<path id="XMLID_990_" d="M10.0706 49.4239C10.8131 50.6836 11.6468 51.883 12.5629 53.0132L25.6008 44.3213H17.441L10.0706 49.4239Z" fill="#D80027"/>
<path id="XMLID_989_" d="M45.1838 44.3213L58.2217 53.0132C59.1377 51.883 59.9715 50.6837 60.714 49.4239L53.3436 44.3213H45.1838Z" fill="#D80027"/>
</g>
</g>
</g>
</g>
</svg>
