<svg width="70" height="70" viewBox="0 0 70 70" fill="none" xmlns="http://www.w3.org/2000/svg">
<g id="japan 1" clip-path="url(#clip0_281_9384)">
<path id="Vector" d="M35.0362 69.2873C53.9404 69.2873 69.2665 53.9599 69.2665 35.057C69.2665 16.1541 53.9404 0.826721 35.0362 0.826721C16.132 0.826721 0.805908 16.1541 0.805908 35.057C0.805908 53.9599 16.132 69.2873 35.0362 69.2873Z" fill="#F0F0F0"/>
<path id="Vector_2" d="M35.0365 49.9489C37.9817 49.9505 40.8613 49.0786 43.3111 47.4434C45.7608 45.8083 47.6705 43.4834 48.7988 40.7628C49.9271 38.0422 50.2232 35.0481 49.6496 32.1592C49.0761 29.2703 47.6587 26.6164 45.5767 24.5331C43.4948 22.4498 40.8417 21.0307 37.9532 20.4554C35.0646 19.88 32.0704 20.1743 29.349 21.3008C26.6277 22.4274 24.3016 24.3357 22.665 26.7844C21.0283 29.233 20.1546 32.1121 20.1543 35.0574C20.1543 39.0052 21.7219 42.7915 24.5126 45.584C27.3033 48.3764 31.0886 49.9464 35.0365 49.9489Z" fill="#D80027"/>
</g>
<defs>
<clipPath id="clip0_281_9384">
<rect width="68.4606" height="68.4606" fill="white" transform="translate(0.805908 0.826721)"/>
</clipPath>
</defs>
</svg>
