<svg width="64" height="64" viewBox="0 0 64 64" fill="none" xmlns="http://www.w3.org/2000/svg">
<g id="united-states-of-america 1" clip-path="url(#clip0_281_9024)">
<g id="Group">
<path id="Vector" d="M63.1274 35.0848H0.652344V35.0858H63.1274V35.0848Z" fill="#C42126"/>
<path id="Vector_2" d="M59.8712 17.9558H3.90649V17.9567H59.8712V17.9558Z" fill="#C42126"/>
<path id="Vector_3" d="M62.0945 23.6641H1.68091V23.665H62.0945V23.6641Z" fill="#C42126"/>
<path id="Vector_4" d="M13.9971 57.9217H49.7809L49.7828 57.9197H13.9951L13.9971 57.9217Z" fill="#C42126"/>
<path id="Vector_5" d="M31.8886 0.772156C31.2723 0.772156 30.6609 0.794413 30.054 0.829125H33.7237C33.1162 0.794413 32.5049 0.772156 31.8886 0.772156Z" fill="#C42126"/>
<path id="Vector_6" d="M63.1356 29.3748H0.640625V29.3757H63.1356V29.3748Z" fill="#C42126"/>
</g>
<path id="Vector_7" d="M41.1628 12.2467H56.1459C54.3662 10.0801 52.2978 8.16225 50.0064 6.53864H38.7554C39.6864 8.17656 40.487 10.1093 41.1628 12.2467Z" fill="#E7E7E7"/>
<path id="Vector_8" d="M38.7553 6.53883H50.0063C45.3551 3.24271 39.771 1.17858 33.7237 0.829346H32.7576C35.6039 1.18759 36.9113 3.29412 38.7553 6.53883Z" fill="#DC3027"/>
<path id="Vector_9" d="M62.0965 23.665C61.5386 21.6753 60.7905 19.7663 59.871 17.957H42.6335C42.9828 19.7896 43.2584 21.7039 43.4624 23.665H62.0965Z" fill="#E7E7E7"/>
<path id="Vector_10" d="M41.6641 17.9559H59.8706C58.8331 15.9152 57.5866 14.0003 56.1459 12.2469H40.2417C40.8025 14.0221 41.2787 15.9371 41.6641 17.9559Z" fill="#DC3027"/>
<path id="Vector_11" d="M44.1226 35.0836H63.1252C63.2154 34.1181 63.2664 33.1395 63.2664 32.1506C63.2664 31.2148 63.2174 30.2908 63.1371 29.3752H44.1271C44.1889 31.2737 44.1879 33.1861 44.1226 35.0836Z" fill="#E7E7E7"/>
<path id="Vector_12" d="M63.1374 29.3743C62.9655 27.4138 62.6123 25.5064 62.0965 23.6663H42.6619C42.857 25.5355 42.9859 27.4479 43.0489 29.3743H63.1374Z" fill="#DC3027"/>
<path id="Vector_13" d="M42.3059 46.5017H59.789C60.7215 44.6944 61.4814 42.7839 62.0512 40.7928H43.1512C42.943 42.7568 42.6606 44.6706 42.3059 46.5017Z" fill="#E7E7E7"/>
<path id="Vector_14" d="M62.0518 40.7926C62.5784 38.9531 62.9441 37.0457 63.1258 35.0846H43.5306C43.4637 37.0124 43.331 38.9243 43.1318 40.7926H62.0518Z" fill="#DC3027"/>
<path id="Vector_15" d="M49.7827 57.9191C52.1073 56.302 54.2049 54.3822 56.0128 52.2111H41.2909C40.6027 54.3574 39.7857 56.2871 38.8379 57.9191H49.7827Z" fill="#E7E7E7"/>
<g id="Group_2">
<path id="Vector_16" d="M40.7371 52.2113H56.013C57.4706 50.46 58.7359 48.545 59.7887 46.5024H42.1773C41.7865 48.5227 41.3054 50.4385 40.7371 52.2113Z" fill="#DC3027"/>
<path id="Vector_17" d="M30.7515 63.5062C30.6881 63.5042 30.6247 63.5013 30.5613 63.4993C30.6247 63.5012 30.6882 63.5042 30.7515 63.5062Z" fill="#DC3027"/>
<path id="Vector_18" d="M31.8889 63.5285C38.5412 63.5285 44.705 61.452 49.7813 57.9221H38.4252C36.4097 61.3945 35.08 63.5285 31.8889 63.5285Z" fill="#DC3027"/>
</g>
<path id="Vector_19" d="M31.8887 63.5278C31.5077 63.5278 31.1292 63.5189 30.7517 63.5055C31.1331 63.5183 31.512 63.5278 31.8887 63.5278Z" fill="#C42126"/>
<path id="Vector_20" d="M39.7944 6.53864H13.7719C11.48 8.16225 9.41205 10.08 7.63184 12.2467H42.2013C41.5255 10.1093 40.7254 8.17656 39.7944 6.53864Z" fill="#F3F4F5"/>
<path id="Vector_21" d="M13.7717 6.53883H39.7942C37.9498 3.29412 35.6038 1.18759 32.7575 0.829346H30.0539C24.0065 1.17858 18.4224 3.24271 13.7717 6.53883Z" fill="#E73625"/>
<path id="Vector_22" d="M1.68164 23.665H44.4521C44.2479 21.7035 43.9725 19.7896 43.6233 17.957H3.90714C2.98756 19.7665 2.23954 21.6753 1.68164 23.665Z" fill="#F3F4F5"/>
<path id="Vector_23" d="M7.63165 12.2466C6.19193 13.9999 4.94444 15.9147 3.90747 17.9555H43.6231C43.2381 15.9371 42.762 14.0223 42.2011 12.2466H7.63165Z" fill="#E73625"/>
<path id="Vector_24" d="M0.511475 32.1506C0.511475 33.1395 0.563012 34.118 0.652705 35.0836H44.8356C44.901 33.186 44.902 31.2741 44.8401 29.3755H0.640781C0.560494 30.2908 0.511475 31.2147 0.511475 32.1506Z" fill="#F3F4F5"/>
<path id="Vector_25" d="M0.640625 29.3743H44.8394C44.7765 27.4475 44.6472 25.5356 44.4524 23.6663H1.68104C1.16527 25.5068 0.812062 27.4138 0.640625 29.3743Z" fill="#E73625"/>
<path id="Vector_26" d="M44.4364 40.7925H1.72632C2.29614 42.7842 3.05661 44.6941 3.98852 46.5015H43.5911C43.9459 44.6708 44.2277 42.7569 44.4364 40.7925Z" fill="#F3F4F5"/>
<path id="Vector_27" d="M1.7269 40.7926H44.4369C44.6357 38.9243 44.7688 37.0119 44.8357 35.0846H0.652832C0.834603 37.0461 1.20079 38.9531 1.7269 40.7926Z" fill="#E73625"/>
<path id="Vector_28" d="M13.9953 57.9191H39.6988C40.6466 56.2867 41.464 54.3574 42.1517 52.2111H7.76514C9.57304 54.3822 11.6702 56.302 13.9953 57.9191Z" fill="#F3F4F5"/>
<g id="Group_3">
<path id="Vector_29" d="M3.98926 46.5022C5.04212 48.5449 6.30737 50.4598 7.76498 52.2112H42.1516C42.7194 50.4385 43.2005 48.5226 43.5913 46.5022H3.98926Z" fill="#E73625"/>
<path id="Vector_30" d="M30.5614 63.4993C30.6248 63.5013 30.6882 63.5042 30.7516 63.5062C31.1292 63.5196 31.5077 63.5285 31.8886 63.5285C35.0798 63.5285 37.6818 61.3946 39.6977 57.9221H13.9973C18.7333 61.2159 24.418 63.2432 30.5614 63.4993Z" fill="#E73625"/>
</g>
<path id="Vector_31" d="M31.2399 0.788635C15.1605 1.11574 2.05498 13.5309 0.644531 29.3231H31.2405V0.788635H31.2399Z" fill="#283991"/>
<g id="Group_4">
<path id="Vector_32" d="M6.78935 18.5503L7.26736 20.0222H8.81613L7.56321 20.9324L8.04174 22.4054L6.78935 21.4947L5.53736 22.4054L6.01497 20.9324L4.76245 20.0222H6.31121L6.78935 18.5503Z" fill="#EFEFEF"/>
<path id="Vector_33" d="M6.78935 23.7502L7.26736 25.223H8.81613L7.56321 26.1332L8.04174 27.6062L6.78935 26.6955L5.53736 27.6062L6.01497 26.1332L4.76245 25.223H6.31121L6.78935 23.7502Z" fill="#EFEFEF"/>
<path id="Vector_34" d="M11.9908 10.7484L12.469 12.2208H14.0172L12.7647 13.1315L13.2428 14.6034L11.9908 13.6938L10.7383 14.6034L11.2164 13.1315L9.96338 12.2208H11.5121L11.9908 10.7484Z" fill="#EFEFEF"/>
<path id="Vector_35" d="M11.9908 15.949L12.469 17.4214H14.0172L12.7647 18.3311L13.2428 19.8041L11.9908 18.8944L10.7383 19.8041L11.2164 18.3311L9.96338 17.4214H11.5121L11.9908 15.949Z" fill="#EFEFEF"/>
<path id="Vector_36" d="M11.9908 21.15L12.469 22.6229H14.0172L12.7647 23.5321L13.2428 25.005L11.9908 24.0945L10.7383 25.005L11.2164 23.5321L9.96338 22.6229H11.5121L11.9908 21.15Z" fill="#EFEFEF"/>
<path id="Vector_37" d="M2.84061 25.0053L2.36208 23.5324L3.6146 22.6227H2.06676L2.03205 22.5153C1.86207 23.041 1.70852 23.573 1.56689 24.1111L1.58875 24.0948L2.84061 25.0053Z" fill="#EFEFEF"/>
<path id="Vector_38" d="M5.53761 17.2041L6.78961 16.2935L8.04213 17.2041L7.56359 15.7311L8.81611 14.8206H7.26735L6.78921 13.3486L6.31107 14.8206H5.74032C5.63433 14.9811 5.53179 15.1426 5.42871 15.3056L6.01536 15.7311L5.53761 17.2041Z" fill="#EFEFEF"/>
<path id="Vector_39" d="M11.9904 8.49244L13.2424 9.40209L12.7643 7.93017L14.0162 7.01959H13.122C12.3624 7.58743 11.6296 8.18838 10.9256 8.82246L10.7368 9.40209L11.9904 8.49244Z" fill="#EFEFEF"/>
<path id="Vector_40" d="M15.9392 6.80177L17.1917 5.8912L18.4437 6.80177L17.9656 5.3288L19.2176 4.41915H17.6693L17.6044 4.22095C17.0798 4.48897 16.5606 4.76785 16.0531 5.06462L16.4168 5.32866L15.9392 6.80177Z" fill="#EFEFEF"/>
<path id="Vector_41" d="M17.1919 8.14771L17.67 9.61923H19.2182L17.9657 10.5298L18.4438 12.0028L17.1919 11.0921L15.9393 12.0028L16.4175 10.5298L15.1646 9.61923H16.7132L17.1919 8.14771Z" fill="#EFEFEF"/>
<path id="Vector_42" d="M17.1919 13.349L17.67 14.8205H19.2182L17.9657 15.7311L18.4438 17.2041L17.1919 16.2934L15.9393 17.2041L16.4175 15.7311L15.1646 14.8205H16.7132L17.1919 13.349Z" fill="#EFEFEF"/>
<path id="Vector_43" d="M17.1919 18.5503L17.67 20.0222H19.2182L17.9657 20.9324L18.4438 22.4054L17.1919 21.4947L15.9393 22.4054L16.4175 20.9324L15.1646 20.0222H16.7132L17.1919 18.5503Z" fill="#EFEFEF"/>
<path id="Vector_44" d="M17.1919 23.7502L17.67 25.223H19.2182L17.9657 26.1332L18.4438 27.6062L17.1919 26.6955L15.9393 27.6062L16.4175 26.1332L15.1646 25.223H16.7132L17.1919 23.7502Z" fill="#EFEFEF"/>
<path id="Vector_45" d="M22.3928 5.54663L22.8709 7.01908H24.4192L23.1672 7.92979L23.6448 9.40171L22.3928 8.49206L21.1399 9.40171L21.6184 7.92979L20.3655 7.01908H21.9141L22.3928 5.54663Z" fill="#EFEFEF"/>
<path id="Vector_46" d="M22.3928 10.7484L22.8709 12.2208H24.4192L23.1672 13.1315L23.6448 14.6034L22.3928 13.6938L21.1399 14.6034L21.6184 13.1315L20.3655 12.2208H21.9141L22.3928 10.7484Z" fill="#EFEFEF"/>
<path id="Vector_47" d="M22.3928 15.949L22.8709 17.4214H24.4192L23.1672 18.3311L23.6448 19.8041L22.3928 18.8944L21.1399 19.8041L21.6184 18.3311L20.3655 17.4214H21.9141L22.3928 15.949Z" fill="#EFEFEF"/>
<path id="Vector_48" d="M22.3928 21.15L22.8709 22.6229H24.4192L23.1672 23.5321L23.6448 25.005L22.3928 24.0945L21.1399 25.005L21.6184 23.5321L20.3655 22.6229H21.9141L22.3928 21.15Z" fill="#EFEFEF"/>
<path id="Vector_49" d="M27.594 2.94714L28.0721 4.41959H29.6203L28.3678 5.32924L28.8459 6.80222L27.594 5.89151L26.341 6.80222L26.8196 5.32924L25.5667 4.41959H27.1149L27.594 2.94714Z" fill="#EFEFEF"/>
<path id="Vector_50" d="M27.594 8.14771L28.0721 9.61923H29.6203L28.3678 10.5298L28.8459 12.0028L27.594 11.0921L26.341 12.0028L26.8196 10.5298L25.5667 9.61923H27.1149L27.594 8.14771Z" fill="#EFEFEF"/>
<path id="Vector_51" d="M27.594 13.349L28.0721 14.8205H29.6203L28.3678 15.7311L28.8459 17.2041L27.594 16.2934L26.341 17.2041L26.8196 15.7311L25.5667 14.8205H27.1149L27.594 13.349Z" fill="#EFEFEF"/>
<path id="Vector_52" d="M27.594 18.5503L28.0721 20.0222H29.6203L28.3678 20.9324L28.8459 22.4054L27.594 21.4947L26.341 22.4054L26.8196 20.9324L25.5667 20.0222H27.1149L27.594 18.5503Z" fill="#EFEFEF"/>
<path id="Vector_53" d="M27.594 23.7502L28.0721 25.223H29.6203L28.3678 26.1332L28.8459 27.6062L27.594 26.6955L26.341 27.6062L26.8196 26.1332L25.5667 25.223H27.1149L27.594 23.7502Z" fill="#EFEFEF"/>
</g>
</g>
<defs>
<clipPath id="clip0_281_9024">
<rect width="62.7556" height="62.7556" fill="white" transform="translate(0.51123 0.772278)"/>
</clipPath>
</defs>
</svg>
